<?xml version="1.0" standalone="no"?>
<!DOCTYPE svg PUBLIC "-//W3C//DTD SVG 20010904//EN"
 "http://www.w3.org/TR/2001/REC-SVG-20010904/DTD/svg10.dtd">
<svg version="1.0" xmlns="http://www.w3.org/2000/svg"
 width="512.000000pt" height="512.000000pt" viewBox="0 0 512.000000 512.000000"
 preserveAspectRatio="xMidYMid meet">
<metadata>
Created by potrace 1.14, written by Peter Selinger 2001-2017
</metadata>
<g transform="translate(0.000000,512.000000) scale(0.100000,-0.100000)"
fill="#000000" stroke="none">
<path d="M2448 4735 c-2 -1 -52 -5 -113 -9 -60 -3 -121 -8 -135 -11 -13 -2
-40 -7 -60 -10 -45 -7 -65 -11 -115 -24 -22 -5 -68 -17 -102 -25 -314 -78
-712 -292 -995 -533 -79 -67 -250 -248 -326 -344 -233 -294 -423 -687 -488
-1009 -3 -14 -9 -44 -15 -68 -5 -23 -12 -59 -15 -78 -3 -20 -8 -46 -10 -58
-26 -131 -25 -723 1 -766 2 -3 6 -25 10 -49 5 -36 28 -142 50 -236 38 -161
177 -487 271 -637 13 -21 24 -42 24 -47 0 -5 3 -11 8 -13 8 -3 52 -64 52 -72
0 -3 6 -14 14 -23 8 -10 36 -47 63 -83 109 -148 152 -186 158 -139 1 7 6 43
10 79 4 36 9 74 10 85 11 80 17 125 22 155 3 19 6 41 6 48 0 7 8 10 19 6 10
-3 31 -7 46 -9 15 -2 92 -19 172 -39 80 -19 156 -37 170 -40 14 -2 72 -14 130
-25 58 -11 121 -23 140 -26 19 -3 36 -7 37 -9 2 -2 5 -45 8 -97 2 -52 6 -105
9 -119 3 -14 8 -35 10 -47 19 -92 137 -203 217 -203 32 0 81 26 123 66 37 35
73 104 115 220 12 32 39 78 59 101 65 75 60 74 532 74 400 0 421 -1 458 -20
34 -17 102 -87 102 -105 0 -3 12 -31 26 -63 32 -74 39 -91 54 -131 16 -42 115
-130 154 -137 45 -9 69 -2 118 29 98 64 135 144 141 310 3 59 6 109 8 111 2 2
24 6 49 10 78 12 83 13 164 29 44 9 93 19 110 22 17 2 74 16 127 29 114 29
124 31 210 48 36 8 71 17 77 21 17 10 22 -15 47 -214 2 -19 8 -60 11 -90 4
-30 8 -63 8 -72 1 -35 26 -26 68 24 24 27 51 59 61 71 9 11 17 23 17 26 0 3
11 19 25 34 67 72 260 407 312 542 6 17 22 59 36 95 22 56 66 194 73 225 1 6
7 30 14 55 7 25 14 56 16 70 2 14 7 36 10 50 3 14 8 36 10 50 11 78 14 101 21
160 5 36 8 169 8 295 0 207 -4 290 -20 365 -2 13 -7 42 -10 65 -33 232 -165
603 -288 810 -137 229 -238 365 -391 525 -206 215 -470 405 -740 534 -53 25
-98 46 -100 46 -2 0 -21 8 -42 17 -22 9 -41 17 -44 18 -3 1 -12 4 -20 8 -69
26 -241 77 -310 92 -118 25 -172 36 -207 40 -24 3 -62 7 -85 10 -47 7 -384 15
-390 10z"/>
</g>
</svg>
